<?xml version="1.0" encoding="UTF-8" standalone="no"?>
<!-- Created with Inkscape (http://www.inkscape.org/) -->

<svg
   width="512"
   height="512"
   viewBox="0 0 512 512"
   version="1.1"
   id="svg1"
   xml:space="preserve"
   inkscape:version="1.3.2 (091e20e, 2023-11-25, custom)"
   sodipodi:docname="WHALOGO.svg"
   xmlns:inkscape="http://www.inkscape.org/namespaces/inkscape"
   xmlns:sodipodi="http://sodipodi.sourceforge.net/DTD/sodipodi-0.dtd"
   xmlns="http://www.w3.org/2000/svg"
   xmlns:svg="http://www.w3.org/2000/svg"><sodipodi:namedview
     id="namedview1"
     pagecolor="#ffffff"
     bordercolor="#000000"
     borderopacity="0.25"
     inkscape:showpageshadow="2"
     inkscape:pageopacity="0.0"
     inkscape:pagecheckerboard="0"
     inkscape:deskcolor="#d1d1d1"
     inkscape:document-units="px"
     inkscape:zoom="1.4142136"
     inkscape:cx="267.63992"
     inkscape:cy="217.43533"
     inkscape:window-width="1920"
     inkscape:window-height="991"
     inkscape:window-x="-9"
     inkscape:window-y="-9"
     inkscape:window-maximized="1"
     inkscape:current-layer="layer1" /><defs
     id="defs1"><rect
       x="33.169435"
       y="128.42525"
       width="434.60465"
       height="198.16611"
       id="rect1" /></defs><g
     inkscape:label="Capa 1"
     inkscape:groupmode="layer"
     id="layer1"><path
       d="m 94.65918,129.74731 c 9.77236,3.31211 20.0625,5.46875 20.0625,5.46875 h -1.09375 c -1.625,0 -2.66667,0.125 -3.125,0.375 -0.4375,0.25 -0.65625,0.64583 -0.65625,1.1875 0,0.375 0.15625,0.96875 0.46875,1.78125 l 0.1875,0.59375 9.40625,29.34375 8.25,-27.09375 c -0.95833,-3.08333 -1.69792,-4.88542 -2.21875,-5.40625 -0.5,-0.52083 -1.51042,-0.78125 -3.03125,-0.78125 h -2.8125 v -2.34375 h 19.28125 v 2.34375 h -2 c -1.75,0 -2.88542,0.14583 -3.40625,0.4375 -0.52083,0.27083 -0.78125,0.6875 -0.78125,1.25 0,0.4375 0.0625,0.84375 0.1875,1.21875 l 9.59375,30.375 7.875,-26.28125 c 0.3125,-1.02083 0.46875,-2 0.46875,-2.9375 0,-1.39583 -0.32292,-2.41667 -0.96875,-3.0625 -0.625,-0.66667 -1.57292,-1 -2.84375,-1 h -1.4375 v -2.34375 h 14.5 v 2.34375 c -1.27083,0.16667 -2.28125,0.47917 -3.03125,0.9375 -0.75,0.4375 -1.40625,1.07292 -1.96875,1.90625 -0.54167,0.83333 -1.09375,2.21875 -1.65625,4.15625 l -11.375,37.96875 h -2.1875 l -10.6875,-33.90625 -10.125,33.90625 h -2.34375 l -13,-41.03125 c -0.52083,-1.60417 -1.11458,-2.65625 -1.78125,-3.15625 -0.64583,-0.52083 -11.488961,-7.14965 -11.8125,3.84375 0,0 -5.142988,-13.21373 4.0625,-10.09375 z m 73.5625,2.59375 c 0.9375,0 1.76042,0.35417 2.46875,1.0625 0.70833,0.70833 1.0625,1.54167 1.0625,2.5 0,0.9375 -0.34375,1.75 -1.03125,2.4375 -0.6875,0.6875 -1.51042,1.03125 -2.46875,1.03125 -0.95833,0 -1.79167,-0.34375 -2.5,-1.03125 -0.6875,-0.70833 -1.03125,-1.53125 -1.03125,-2.46875 0,-0.9375 0.35417,-1.76042 1.0625,-2.46875 0.70833,-0.70833 1.52083,-1.0625 2.4375,-1.0625 z m -8.09375,17.46875 11.625,-0.34375 v 25.1875 c 0,0.6875 0.16667,1.17708 0.5,1.46875 0.47917,0.41667 1.08333,0.625 1.8125,0.625 h 3.3125 v 2.34375 h -16.625 v -2.34375 h 3.09375 c 0.91667,0 1.58333,-0.21875 2,-0.65625 0.4375,-0.45833 0.65625,-1.11458 0.65625,-1.96875 v -18.4375 c 0,-1.16667 -0.33333,-2.04167 -1,-2.625 -0.66667,-0.60417 -1.65625,-0.90625 -2.96875,-0.90625 h -2.40625 z m 28.40625,-11.9375 h 2.125 v 11.9375 h 9.46875 v 2.875 h -9.46875 v 18.78125 c 0,1.625 0.38542,2.875 1.15625,3.75 0.77083,0.85417 1.75,1.28125 2.9375,1.28125 1.41667,0 2.625,-0.65625 3.625,-1.96875 1,-1.3125 1.58333,-3.47917 1.75,-6.5 h 2.09375 c -0.125,3.89583 -1.01042,6.79167 -2.65625,8.6875 -1.64583,1.875 -3.78125,2.8125 -6.40625,2.8125 -2.41667,0 -4.3125,-0.65625 -5.6875,-1.96875 -1.35417,-1.33333 -2.03125,-3.07292 -2.03125,-5.21875 v -19.65625 h -5.09375 v -2.1875 c 2.3125,-0.39583 4.07292,-1.36458 5.28125,-2.90625 1.79167,-2.3125 2.76042,-5.55208 2.90625,-9.71875 z m 39.59375,32.53125 2.03125,0.59375 c -1.625,5.97917 -5.20833,8.96875 -10.75,8.96875 -4.0625,0 -7.38542,-1.34375 -9.96875,-4.03125 -2.58333,-2.6875 -3.875,-6.26042 -3.875,-10.71875 0,-5.16667 1.41667,-9.16667 4.25,-12 2.83333,-2.85417 6.16667,-4.28125 10,-4.28125 2.875,0 5.25,0.79167 7.125,2.375 1.875,1.58333 2.8125,3.34375 2.8125,5.28125 0,1.16667 -0.35417,2.13542 -1.0625,2.90625 -0.6875,0.75 -1.51042,1.125 -2.46875,1.125 -0.9375,0 -1.72917,-0.32292 -2.375,-0.96875 -0.64583,-0.64583 -0.96875,-1.42708 -0.96875,-2.34375 0,-0.91667 0.35417,-1.79167 1.0625,-2.625 0.33333,-0.39583 0.5,-0.70833 0.5,-0.9375 0,-0.60417 -0.40625,-1.1875 -1.21875,-1.75 -0.8125,-0.58333 -1.91667,-0.875 -3.3125,-0.875 -2.54167,0 -4.46875,0.92708 -5.78125,2.78125 -1.875,2.6875 -2.8125,6.22917 -2.8125,10.625 0,4.1875 0.83333,7.36458 2.5,9.53125 1.66667,2.14583 3.79167,3.21875 6.375,3.21875 3.5625,0 6.20833,-2.29167 7.9375,-6.875 z m 5.28125,-37.53125 11.09375,-0.53125 v 22.5625 c 1.54167,-2 3.19792,-3.48958 4.96875,-4.46875 1.77083,-1 3.64583,-1.5 5.625,-1.5 1.875,0 3.5625,0.44792 5.0625,1.34375 1.16667,0.70833 2.15625,1.94792 2.96875,3.71875 0.83333,1.77083 1.25,3.86458 1.25,6.28125 v 13.90625 c 0,0.89583 0.22917,1.55208 0.6875,1.96875 0.45833,0.39583 1.17708,0.59375 2.15625,0.59375 h 2.5 v 2.34375 h -15.8125 v -2.34375 h 1.75 c 1.33333,0 2.25,-0.20833 2.75,-0.625 0.52083,-0.4375 0.78125,-1.08333 0.78125,-1.9375 v -13.90625 c 0,-2.4375 -0.59375,-4.33333 -1.78125,-5.6875 -1.16667,-1.375 -2.66667,-2.0625 -4.5,-2.0625 -1.4375,0 -2.77083,0.38542 -4,1.15625 -1.22917,0.77083 -2.27083,1.94792 -3.125,3.53125 -0.85417,1.5625 -1.28125,3.21875 -1.28125,4.96875 v 11.6875 c 0,1.04167 0.21875,1.78125 0.65625,2.21875 0.4375,0.4375 1.15625,0.65625 2.15625,0.65625 h 2.5 v 2.34375 h -15.46875 v -2.34375 h 1.75 c 1.1875,0 2.03125,-0.22917 2.53125,-0.6875 0.5,-0.47917 0.75,-1.20833 0.75,-2.1875 v -34.9375 c 0,-1.25 -0.33333,-2.17708 -1,-2.78125 -0.64583,-0.625 -1.59375,-0.9375 -2.84375,-0.9375 h -2.125 z m 58.53125,0 h 19.71875 v 2.34375 h -3.625 c -1.27083,0 -2.10417,0.22917 -2.5,0.6875 -0.375,0.4375 -0.5625,1.52083 -0.5625,3.25 v 14.25 h 21.15625 v -14.25 c 0,-1.79167 -0.1875,-2.89583 -0.5625,-3.3125 -0.35417,-0.41667 -1.20833,-0.625 -2.5625,-0.625 h -3.375 v -2.34375 h 19.625 v 2.34375 h -3.59375 c -0.89583,0 -1.53125,0.11458 -1.90625,0.34375 -0.35417,0.22917 -0.64583,0.625 -0.875,1.1875 -0.125,0.35417 -0.1875,1.28125 -0.1875,2.78125 v 33.25 c 0,1.60417 0.13542,2.57292 0.40625,2.90625 0.54167,0.70833 1.53125,1.0625 2.96875,1.0625 h 3.1875 v 2.34375 h -19.625 v -2.34375 h 3.375 c 1.33333,0 2.23958,-0.36458 2.71875,-1.09375 0.27083,-0.39583 0.40625,-1.4375 0.40625,-3.125 v -16.0625 h -21.15625 v 16.3125 c 0,1.625 0.125,2.60417 0.375,2.9375 0.52083,0.6875 1.41667,1.03125 2.6875,1.03125 h 3.625 v 2.34375 h -19.71875 v -2.34375 h 3.78125 c 0.66667,0 1.19792,-0.13542 1.59375,-0.40625 0.39583,-0.27083 0.6875,-0.65625 0.875,-1.15625 0.10417,-0.33333 0.15625,-1.21875 0.15625,-2.65625 v -33.375 c 0,-1.72917 -0.19792,-2.8125 -0.59375,-3.25 -0.375,-0.45833 -1.20833,-0.6875 -2.5,-0.6875 h -3.3125 z m 83.34375,43 1.125,1.75 c -1.52083,1.5625 -3.20833,2.34375 -5.0625,2.34375 -1.41667,0 -2.61458,-0.38542 -3.59375,-1.15625 -0.95833,-0.77083 -1.80208,-2.125 -2.53125,-4.0625 -1.97917,2.08333 -3.71875,3.47917 -5.21875,4.1875 -1.5,0.6875 -3.30208,1.03125 -5.40625,1.03125 -3,0 -5.28125,-0.64583 -6.84375,-1.9375 -1.5625,-1.29167 -2.34375,-2.94792 -2.34375,-4.96875 0,-3.04167 1.78125,-5.5625 5.34375,-7.5625 3.58333,-2.02083 8.34375,-3.36458 14.28125,-4.03125 v -4.4375 c 0,-1.58333 -0.63542,-2.9375 -1.90625,-4.0625 -1.27083,-1.125 -2.88542,-1.6875 -4.84375,-1.6875 -1.8125,0 -3.375,0.375 -4.6875,1.125 -0.9375,0.5625 -1.40625,1.11458 -1.40625,1.65625 0,0.3125 0.25,0.80208 0.75,1.46875 0.60417,0.83333 0.90625,1.57292 0.90625,2.21875 0,0.9375 -0.30208,1.70833 -0.90625,2.3125 -0.60417,0.58333 -1.39583,0.875 -2.375,0.875 -1.04167,0 -1.91667,-0.35417 -2.625,-1.0625 -0.6875,-0.70833 -1.03125,-1.61458 -1.03125,-2.71875 0,-2.0625 1.15625,-3.94792 3.46875,-5.65625 2.33333,-1.70833 5.38542,-2.5625 9.15625,-2.5625 3.47917,0 6.13542,0.75 7.96875,2.25 1.83333,1.52083 2.75,3.36458 2.75,5.53125 v 16 c 0,1.41667 0.22917,2.45833 0.6875,3.125 0.45833,0.6875 1.05208,1.03125 1.78125,1.03125 0.8125,0 1.66667,-0.33333 2.5625,-1 z m -10.25,-12.34375 c -5.29167,0.72917 -9.04167,1.91667 -11.25,3.5625 -1.64583,1.25 -2.46875,3.02083 -2.46875,5.3125 0,1.60417 0.42708,2.86458 1.28125,3.78125 0.85417,0.89583 1.96875,1.34375 3.34375,1.34375 2.45833,0 4.58333,-0.92708 6.375,-2.78125 1.8125,-1.875 2.71875,-4.21875 2.71875,-7.03125 z m 22.59375,-25.65625 h 2.125 v 11.9375 h 9.46875 v 2.875 h -9.46875 v 18.78125 c 0,1.625 0.38542,2.875 1.15625,3.75 0.77083,0.85417 1.75,1.28125 2.9375,1.28125 1.41667,0 2.625,-0.65625 3.625,-1.96875 1,-1.3125 1.58333,-3.47917 1.75,-6.5 h 2.09375 c -0.125,3.89583 -1.01042,6.79167 -2.65625,8.6875 -1.64583,1.875 -3.78125,2.8125 -6.40625,2.8125 -2.41667,0 -4.3125,-0.65625 -5.6875,-1.96875 -1.35417,-1.33333 -2.03125,-3.07292 -2.03125,-5.21875 v -19.65625 h -5.09375 v -2.1875 c 2.3125,-0.39583 4.07292,-1.36458 5.28125,-2.90625 1.79167,-2.3125 2.76042,-5.55208 2.90625,-9.71875 z m -217.61719,58.03125 h 2.09375 l 16.59375,42.28125 c 0.66667,1.70833 2.03125,2.5625 4.09375,2.5625 h 1.4375 v 2.34375 h -18.4375 v -2.34375 h 1.46875 c 1.91667,0 3.27083,-0.20833 4.0625,-0.625 0.54167,-0.29167 0.8125,-0.73958 0.8125,-1.34375 0,-0.35417 -0.0729,-0.72917 -0.21875,-1.125 l -4.40625,-11.1875 -16.625,-0.25 -3.21875,7.25 c -0.5625,1.5 -0.84375,2.6875 -0.84375,3.5625 0,1.02083 0.46875,1.89583 1.40625,2.625 0.95833,0.72917 2.34375,1.09375 4.15625,1.09375 h 1.5625 v 2.34375 h -16.75 v -2.34375 c 1.79167,0 3.20833,-0.38542 4.25,-1.15625 1.04167,-0.79167 2,-2.28125 2.875,-4.46875 z m -0.90625,8.90625 -8.28125,20.59375 h 16.34375 z m 34.5625,-2.9375 h 2.125 v 11.9375 h 9.46875 v 2.875 h -9.46875 v 18.78125 c 0,1.625 0.38542,2.875 1.15625,3.75 0.77083,0.85417 1.75,1.28125 2.9375,1.28125 1.41667,0 2.625,-0.65625 3.625,-1.96875 1,-1.3125 1.58333,-3.47917 1.75,-6.5 h 2.09375 c -0.125,3.89583 -1.01042,6.79167 -2.65625,8.6875 -1.64583,1.875 -3.78125,2.8125 -6.40625,2.8125 -2.41667,0 -4.3125,-0.65625 -5.6875,-1.96875 -1.35417,-1.33333 -2.03125,-3.07292 -2.03125,-5.21875 v -19.65625 h -5.09375 v -2.1875 c 2.3125,-0.39583 4.07292,-1.36458 5.28125,-2.90625 1.79167,-2.3125 2.76042,-5.55208 2.90625,-9.71875 z m 44.6875,26.78125 h -20.96875 c 0.10417,4.45833 0.9375,7.60417 2.5,9.4375 1.79167,2.0625 4.07292,3.09375 6.84375,3.09375 4.08333,0 7.36458,-2.32292 9.84375,-6.96875 l 2.03125,0.875 c -3.04167,5.91667 -7.4375,8.875 -13.1875,8.875 -3.91667,0 -7.21875,-1.41667 -9.90625,-4.25 -2.66667,-2.83333 -4,-6.45833 -4,-10.875 0,-4.75 1.3125,-8.58333 3.9375,-11.5 2.64583,-2.9375 5.89583,-4.40625 9.75,-4.40625 2.83333,0 5.28125,0.72917 7.34375,2.1875 2.0625,1.45833 3.61458,3.55208 4.65625,6.28125 0.72917,1.91667 1.11458,4.33333 1.15625,7.25 z m -20.96875,-2.21875 h 12.6875 c 0.75,0 1.33333,-0.25 1.75,-0.75 0.41667,-0.52083 0.625,-1.39583 0.625,-2.625 0,-2.29167 -0.71875,-4.23958 -2.15625,-5.84375 -1.41667,-1.60417 -3.09375,-2.40625 -5.03125,-2.40625 -2.16667,0 -4.01042,0.96875 -5.53125,2.90625 -1.5,1.9375 -2.28125,4.84375 -2.34375,8.71875 z m 36.53125,-30.09375 v 42.4375 c 0,0.58333 0.17708,1.03125 0.53125,1.34375 0.52083,0.41667 1.15625,0.625 1.90625,0.625 h 3.09375 v 2.34375 h -16.5625 v -2.34375 h 2.9375 c 0.95833,0 1.66667,-0.22917 2.125,-0.6875 0.47917,-0.45833 0.71875,-1.10417 0.71875,-1.9375 v -35.625 c 0,-1.04167 -0.28125,-1.80208 -0.84375,-2.28125 -0.77083,-0.66667 -1.71875,-1 -2.84375,-1 h -2.625 v -2.34375 z m 16.65625,0 c 0.9375,0 1.76042,0.35417 2.46875,1.0625 0.70833,0.70833 1.0625,1.54167 1.0625,2.5 0,0.9375 -0.34375,1.75 -1.03125,2.4375 -0.6875,0.6875 -1.51042,1.03125 -2.46875,1.03125 -0.95833,0 -1.79167,-0.34375 -2.5,-1.03125 -0.6875,-0.70833 -1.03125,-1.53125 -1.03125,-2.46875 0,-0.9375 0.35417,-1.76042 1.0625,-2.46875 0.70833,-0.70833 1.52083,-1.0625 2.4375,-1.0625 z m -8.09375,17.46875 11.625,-0.34375 v 25.1875 c 0,0.6875 0.16667,1.17708 0.5,1.46875 0.47917,0.41667 1.08333,0.625 1.8125,0.625 h 3.3125 v 2.34375 h -16.625 v -2.34375 h 3.09375 c 0.91667,0 1.58333,-0.21875 2,-0.65625 0.4375,-0.45833 0.65625,-1.11458 0.65625,-1.96875 v -18.4375 c 0,-1.16667 -0.33333,-2.04167 -1,-2.625 -0.66667,-0.60417 -1.65625,-0.90625 -2.96875,-0.90625 h -2.40625 z m 48.1875,14.84375 h -20.96875 c 0.10417,4.45833 0.9375,7.60417 2.5,9.4375 1.79167,2.0625 4.07292,3.09375 6.84375,3.09375 4.08333,0 7.36458,-2.32292 9.84375,-6.96875 l 2.03125,0.875 c -3.04167,5.91667 -7.4375,8.875 -13.1875,8.875 -3.91667,0 -7.21875,-1.41667 -9.90625,-4.25 -2.66667,-2.83333 -4,-6.45833 -4,-10.875 0,-4.75 1.3125,-8.58333 3.9375,-11.5 2.64583,-2.9375 5.89583,-4.40625 9.75,-4.40625 2.83333,0 5.28125,0.72917 7.34375,2.1875 2.0625,1.45833 3.61458,3.55208 4.65625,6.28125 0.72917,1.91667 1.11458,4.33333 1.15625,7.25 z m -20.96875,-2.21875 h 12.6875 c 0.75,0 1.33333,-0.25 1.75,-0.75 0.41667,-0.52083 0.625,-1.39583 0.625,-2.625 0,-2.29167 -0.71875,-4.23958 -2.15625,-5.84375 -1.41667,-1.60417 -3.09375,-2.40625 -5.03125,-2.40625 -2.16667,0 -4.01042,0.96875 -5.53125,2.90625 -1.5,1.9375 -2.28125,4.84375 -2.34375,8.71875 z m 25.03125,-12.625 10.53125,-0.53125 v 11.84375 c 1.125,-3.89583 2.47917,-6.84375 4.0625,-8.84375 1.58333,-2 3.54167,-3 5.875,-3 1.58333,0 2.84375,0.48958 3.78125,1.46875 0.95833,0.95833 1.4375,2.25 1.4375,3.875 0,1.3125 -0.32292,2.33333 -0.96875,3.0625 -0.625,0.72917 -1.41667,1.09375 -2.375,1.09375 -0.9375,0 -1.69792,-0.3125 -2.28125,-0.9375 -0.5625,-0.625 -0.84375,-1.46875 -0.84375,-2.53125 0,-0.6875 0.16667,-1.33333 0.5,-1.9375 0.3125,-0.54167 0.46875,-0.86458 0.46875,-0.96875 0,-0.3125 -0.19792,-0.46875 -0.59375,-0.46875 -0.85417,0 -1.82292,0.5 -2.90625,1.5 -1.5,1.39583 -2.65625,3.3125 -3.46875,5.75 -1.25,3.79167 -1.875,6.82292 -1.875,9.09375 v 6.28125 c 0,0.70833 0.25,1.25 0.75,1.625 0.5,0.375 1.35417,0.5625 2.5625,0.5625 h 3.71875 v 2.34375 h -18.1875 v -2.34375 h 2.90625 c 0.97917,0 1.71875,-0.1875 2.21875,-0.5625 0.5,-0.39583 0.75,-0.86458 0.75,-1.40625 v -18.65625 c 0,-1.41667 -0.30208,-2.44792 -0.90625,-3.09375 -0.60417,-0.66667 -1.46875,-1 -2.59375,-1 h -2.5625 z"
       id="text1"
       style="font-size:64px;line-height:100%;font-family:Century;-inkscape-font-specification:'Century, Normal';text-align:center;text-anchor:middle;white-space:pre;stroke-width:2.2;stroke-linecap:round"
       aria-label="Witch Hat Atelier"
       sodipodi:nodetypes="scscscccccsccccscscccscscccccccccccccccsssssscsssccscsccccscsscsccccccccscsscccscscccccccssscssscssscscscscscccccsccsscsccccscsscsscssssccccscsscscccccscsccscsccccsccsscsccccscsccscsccccsscsscsccccscccsssccssscscscscscscsscscccscscscccccccscsscccscsccccccccsccccscsccccscscccccscccccccccccscsscccscsccccccccsccscscsscccscscscccscsccccscsscscccssssscsssccscsccccscsscscccccsccscscsscccscscscccccsscscscscssccssssccccscsscscc"
       transform="translate(0,51.880399)"
       inkscape:export-filename="WitchHatAtelierLogo"
       inkscape:export-xdpi="307.54346"
       inkscape:export-ydpi="307.54346" /><path
       style="fill:none;fill-opacity:1;stroke:#d1a13f;stroke-width:3.27799;stroke-linecap:round;stroke-dasharray:none;stroke-opacity:1"
       d="m 248.77126,215.64783 28.39259,11.22408 6.04099,-54.93892 z"
       id="path1" /><path
       style="fill:#000000;fill-opacity:1;stroke:none;stroke-width:3.3;stroke-linecap:round;stroke-dasharray:none;stroke-opacity:1"
       d="m 180.2168,281.88852 c 0,0 7.9519,-3.47119 -0.26822,-4.26669 -8.22011,-0.79549 -22.79958,-5.13853 -37.87342,-2.09866 -15.07384,3.03987 -20.83991,11.26238 -16.25368,18.48097 4.58623,7.21859 20.7168,4.07713 50.26955,4.77297 19.62045,0.46198 6.1756,12.51408 7.26562,10.76041 4.37656,-7.0412 -14.62253,-8.16238 -15.86549,-1.05546 -1.76657,10.10076 27.53995,1.79626 22.8382,-7.66942 -4.70175,-9.46568 -52.33395,2.08039 -57.94201,-8.70647 -5.60806,-10.78686 11.48424,-17.96125 25.59955,-13.95248 24.60997,6.98927 26.92767,8.39276 22.45064,3.61243 -1.91452,-4.21783 -0.22074,0.1224 -0.22074,0.1224 z"
       id="path167"
       sodipodi:nodetypes="cszzssszzscc" /></g></svg>
